<svg xmlns="http://www.w3.org/2000/svg" width="150" height="150" viewBox="0 0 150 150"><g fill="none" stroke="#000" stroke-width="3" stroke-miterlimit="10"><path d="M75.188 38.916l34.68 35.443-35.442 34.679-34.68-35.444z"/><path d="M75.79 145.261l-50.697-20.185-21.575-50.12 20.184-50.697L73.823 2.684l50.699 20.184 21.573 50.12-20.186 50.697zM73.823 2.684l1.365 36.229m-.764 70.117l1.366 36.231m34.075-70.907l36.23-1.366M3.518 74.956l36.23-1.366m70.117.764l16.044 49.331M74.424 109.03l51.485 14.655M39.748 73.59l-14.655 51.486m49.331-16.046l-49.331 16.046M23.702 24.259L39.748 73.59M23.702 24.259l51.486 14.654m0 0l49.334-16.045m0 0l-14.657 51.486"/></g></svg>