<?xml version="1.0" encoding="utf-8"?>
<!-- Generator: Adobe Illustrator 16.0.0, SVG Export Plug-In . SVG Version: 6.00 Build 0)  -->
<!DOCTYPE svg PUBLIC "-//W3C//DTD SVG 1.1//EN" "http://www.w3.org/Graphics/SVG/1.1/DTD/svg11.dtd">
<svg version="1.1" id="Layer_1" xmlns="http://www.w3.org/2000/svg" xmlns:xlink="http://www.w3.org/1999/xlink" x="0px" y="0px"
	 width="150px" height="150px" viewBox="0 0 150 150" enable-background="new 0 0 150 150" xml:space="preserve">
<g>
	
		<rect x="50.014" y="49.18" transform="matrix(0.6994 0.7148 -0.7148 0.6994 75.3621 -31.2306)" fill="none" stroke="#000000" stroke-width="3" stroke-miterlimit="10" width="49.585" height="49.583"/>
	<polygon fill="none" stroke="#000000" stroke-width="3" stroke-miterlimit="10" points="75.79,145.261 25.093,125.076 
		3.518,74.956 23.702,24.259 73.823,2.684 124.522,22.868 146.095,72.988 125.909,123.685 	"/>
	<line fill="none" stroke="#000000" stroke-width="3" stroke-miterlimit="10" x1="73.823" y1="2.684" x2="75.188" y2="38.913"/>
	<line fill="none" stroke="#000000" stroke-width="3" stroke-miterlimit="10" x1="74.424" y1="109.03" x2="75.79" y2="145.261"/>
	<line fill="none" stroke="#000000" stroke-width="3" stroke-miterlimit="10" x1="109.865" y1="74.354" x2="146.095" y2="72.988"/>
	<line fill="none" stroke="#000000" stroke-width="3" stroke-miterlimit="10" x1="3.518" y1="74.956" x2="39.748" y2="73.59"/>
	<line fill="none" stroke="#000000" stroke-width="3" stroke-miterlimit="10" x1="109.865" y1="74.354" x2="125.909" y2="123.685"/>
	<line fill="none" stroke="#000000" stroke-width="3" stroke-miterlimit="10" x1="74.424" y1="109.03" x2="125.909" y2="123.685"/>
	<line fill="none" stroke="#000000" stroke-width="3" stroke-miterlimit="10" x1="39.748" y1="73.59" x2="25.093" y2="125.076"/>
	<line fill="none" stroke="#000000" stroke-width="3" stroke-miterlimit="10" x1="74.424" y1="109.03" x2="25.093" y2="125.076"/>
	<line fill="none" stroke="#000000" stroke-width="3" stroke-miterlimit="10" x1="23.702" y1="24.259" x2="39.748" y2="73.59"/>
	<line fill="none" stroke="#000000" stroke-width="3" stroke-miterlimit="10" x1="23.702" y1="24.259" x2="75.188" y2="38.913"/>
	<line fill="none" stroke="#000000" stroke-width="3" stroke-miterlimit="10" x1="75.188" y1="38.913" x2="124.522" y2="22.868"/>
	<line fill="none" stroke="#000000" stroke-width="3" stroke-miterlimit="10" x1="124.522" y1="22.868" x2="109.865" y2="74.354"/>
</g>
</svg>
