<?xml version="1.0" encoding="utf-8"?>
<!-- Generator: Adobe Illustrator 16.0.0, SVG Export Plug-In . SVG Version: 6.00 Build 0)  -->
<!DOCTYPE svg PUBLIC "-//W3C//DTD SVG 1.1//EN" "http://www.w3.org/Graphics/SVG/1.1/DTD/svg11.dtd">
<svg version="1.1" id="Layer_1" xmlns="http://www.w3.org/2000/svg" xmlns:xlink="http://www.w3.org/1999/xlink" x="0px" y="0px"
	 width="330px" height="288px" viewBox="0 0 330 288" enable-background="new 0 0 330 288" xml:space="preserve">
<path display="none" opacity="0.9" fill="#F7EED4" enable-background="new    " d="M568.333,310.334c0,1.657-1.343,3-3,3h-801
	c-1.657,0-3-1.343-3-3v-384c0-1.657,1.343-3,3-3h801c1.657,0,3,1.343,3,3V310.334z"/>
<g>
	<path fill="none" stroke="#000000" stroke-width="13" stroke-linecap="square" stroke-miterlimit="10" d="M146.771,166.334
		c0.015-13.863,3.82-28.028,0.43-41.77c-3.73-15.116-18.676-20.86-32.872-16.259c-13.882,4.5-25.597,20.931-18.915,35.691
		c3.364,7.434,12.636,10.033,19.998,11.291c8.779,1.499,18.273,1.721,27.12,0.828c19.086-1.926,33.364-16.935,43.071-32.444
		c8.119-12.973,13.121-27.653,14.987-42.827c1.396-11.345,0.759-26.306-11.804-31.026c-5.109-1.92-11.957-2.55-16.65,0.765
		c-3.959,2.797-5.515,7.735-6.146,12.326c-1.598,11.613,1.224,24.004,3.664,35.315c2.39,11.067,4.975,22.107,6.761,33.295
		c2.344,14.691,1.665,22.206,0.19,33.889c-0.481,3.811-2.771,17.426-9.521,27.426"/>
	<path fill="none" stroke="#000000" stroke-width="13" stroke-miterlimit="10" d="M164.958,196.084
		c2.72-4.066,6.61-7.123,10.578-9.896c4.415-3.088,8.921-6.072,13.507-8.899c5.92-3.649,12.137-6.745,19.125-7.578
		c3.818-0.456,8.809,0.258,11.273,3.483c5.098,6.668,3.189,16.373,2.888,24.096c-0.192,4.898,0.041,11.632,3.487,15.49
		c2.431,2.719,6.209,3.961,9.517,5.223"/>
</g>
</svg>
