<svg xmlns="http://www.w3.org/2000/svg" width="330" height="288" viewBox="0 0 330 288"><g fill="none" stroke="#000" stroke-width="13" stroke-miterlimit="10"><path stroke-linecap="square" d="M146.771 166.334c.015-13.863 3.82-28.028.43-41.77-3.73-15.116-18.676-20.86-32.872-16.259-13.882 4.5-25.597 20.931-18.915 35.691 3.364 7.434 12.636 10.033 19.998 11.291 8.779 1.499 18.273 1.721 27.12.828 19.086-1.926 33.364-16.935 43.071-32.444 8.119-12.973 13.121-27.653 14.987-42.827 1.396-11.345.759-26.306-11.804-31.026-5.109-1.92-11.957-2.55-16.65.765-3.959 2.797-5.515 7.735-6.146 12.326-1.598 11.613 1.224 24.004 3.664 35.315 2.39 11.067 4.975 22.107 6.761 33.295 2.344 14.691 1.665 22.206.19 33.889-.481 3.811-2.771 17.426-9.521 27.426"/><path d="M164.958 196.084c2.72-4.066 6.61-7.123 10.578-9.896a279.554 279.554 0 0 1 13.507-8.899c5.92-3.649 12.137-6.745 19.125-7.578 3.818-.456 8.809.258 11.273 3.483 5.098 6.668 3.189 16.373 2.888 24.096-.192 4.898.041 11.632 3.487 15.49 2.431 2.719 6.209 3.961 9.517 5.223"/></g></svg>